# xmcd
#
# Track frame offsets:
#	150
#	2842
#	14425
#	37142
#	54780
#	73120
#	79795
#	98185
#	120445
#	129247
#	144955
#	157820
#	180875
#	219215
#	252447
#	265232
#	283785
#
# Disc length: 4047 seconds
#
# Revision: 1
# Processed by: cddbd v1.5.2PL0 Copyright (c) Steve Scherf et al.
# Submitted via: EZCDAudioConverter 3.1.7.1
#
DISCID=dc0fcd11
DTITLE=Robert Earl Keen - No  2 Live Dinner
DYEAR=1996
DGENRE=Country
TTITLE0=Intro
TTITLE1=I'm Going To Town
TTITLE2=Gringo Honeymoon
TTITLE3=Merry Christmas From The Family
TTITLE4=Five Pound Bass
TTITLE5=Band Intro
TTITLE6=Rollin' By
TTITLE7=Sonora's Death Row
TTITLE8=When The Bluebonnets Bloom
TTITLE9=Think It Over One Time
TTITLE10=Amarillo Highway
TTITLE11=The Road Intro
TTITLE12=The Road Goes On Forever
TTITLE13=Dreadful Selfish Crime
TTITLE14=Mariano Intro
TTITLE15=Mariano
TTITLE16=I'm Comin' Home
EXTD=
EXTT0=
EXTT1=
EXTT2=
EXTT3=
EXTT4=
EXTT5=
EXTT6=
EXTT7=
EXTT8=
EXTT9=
EXTT10=
EXTT11=
EXTT12=
EXTT13=
EXTT14=
EXTT15=
EXTT16=
PLAYORDER=
